<mxfile host="app.diagrams.net" modified="2020-10-17T10:02:48.588Z" agent="5.0 (Windows)" etag="fsEY0XPdUQ3VOvP4trZR" version="13.8.0" type="github">
  <diagram id="EBAqXA3Rk7b2zjhmI37Y" name="Page-1">
    <mxGraphModel dx="868" dy="479" grid="1" gridSize="10" guides="1" tooltips="1" connect="1" arrows="1" fold="1" page="1" pageScale="1" pageWidth="850" pageHeight="1100" math="0" shadow="0">
      <root>
        <mxCell id="0" />
        <mxCell id="1" parent="0" />
        <mxCell id="KgykDgwzjjI9ATA_reYL-1" value="" style="rounded=0;whiteSpace=wrap;html=1;fillColor=#FFFF99;" vertex="1" parent="1">
          <mxGeometry x="350" y="80" width="200" height="760" as="geometry" />
        </mxCell>
        <mxCell id="KgykDgwzjjI9ATA_reYL-2" value="&lt;font style=&quot;font-size: 18px&quot;&gt;User Input&lt;/font&gt;" style="ellipse;whiteSpace=wrap;html=1;fillColor=#33FF33;" vertex="1" parent="1">
          <mxGeometry x="370" y="100" width="160" height="80" as="geometry" />
        </mxCell>
        <mxCell id="KgykDgwzjjI9ATA_reYL-20" style="edgeStyle=orthogonalEdgeStyle;rounded=0;orthogonalLoop=1;jettySize=auto;html=1;" edge="1" parent="1" source="KgykDgwzjjI9ATA_reYL-3">
          <mxGeometry relative="1" as="geometry">
            <mxPoint x="130" y="350" as="targetPoint" />
          </mxGeometry>
        </mxCell>
        <mxCell id="KgykDgwzjjI9ATA_reYL-3" value="&lt;font style=&quot;font-size: 18px&quot;&gt;Tokenization&lt;/font&gt;" style="ellipse;whiteSpace=wrap;html=1;fillColor=#33FF33;" vertex="1" parent="1">
          <mxGeometry x="370" y="195" width="160" height="80" as="geometry" />
        </mxCell>
        <mxCell id="KgykDgwzjjI9ATA_reYL-21" style="edgeStyle=orthogonalEdgeStyle;rounded=0;orthogonalLoop=1;jettySize=auto;html=1;" edge="1" parent="1" source="KgykDgwzjjI9ATA_reYL-6">
          <mxGeometry relative="1" as="geometry">
            <mxPoint x="160" y="370" as="targetPoint" />
          </mxGeometry>
        </mxCell>
        <mxCell id="KgykDgwzjjI9ATA_reYL-6" value="&lt;font style=&quot;font-size: 18px&quot;&gt;Embedding Layer&lt;/font&gt;" style="ellipse;whiteSpace=wrap;html=1;fillColor=#66FF66;" vertex="1" parent="1">
          <mxGeometry x="370" y="300" width="160" height="80" as="geometry" />
        </mxCell>
        <mxCell id="KgykDgwzjjI9ATA_reYL-23" style="edgeStyle=orthogonalEdgeStyle;rounded=0;orthogonalLoop=1;jettySize=auto;html=1;" edge="1" parent="1" source="KgykDgwzjjI9ATA_reYL-7">
          <mxGeometry relative="1" as="geometry">
            <mxPoint x="160" y="450" as="targetPoint" />
          </mxGeometry>
        </mxCell>
        <mxCell id="KgykDgwzjjI9ATA_reYL-7" value="&lt;font style=&quot;font-size: 18px&quot;&gt;Bidirectional Attention Flow&lt;/font&gt; " style="ellipse;whiteSpace=wrap;html=1;fontSize=17;fillColor=#66FF66;" vertex="1" parent="1">
          <mxGeometry x="370" y="410" width="160" height="80" as="geometry" />
        </mxCell>
        <mxCell id="KgykDgwzjjI9ATA_reYL-27" style="edgeStyle=orthogonalEdgeStyle;rounded=0;orthogonalLoop=1;jettySize=auto;html=1;" edge="1" parent="1" source="KgykDgwzjjI9ATA_reYL-9">
          <mxGeometry relative="1" as="geometry">
            <mxPoint x="170" y="520" as="targetPoint" />
          </mxGeometry>
        </mxCell>
        <mxCell id="KgykDgwzjjI9ATA_reYL-9" value="&lt;font style=&quot;font-size: 18px&quot;&gt;Modelling Layer&lt;/font&gt;" style="ellipse;whiteSpace=wrap;html=1;fontSize=17;fillColor=#66FF66;" vertex="1" parent="1">
          <mxGeometry x="370" y="520" width="160" height="80" as="geometry" />
        </mxCell>
        <mxCell id="KgykDgwzjjI9ATA_reYL-26" style="edgeStyle=orthogonalEdgeStyle;rounded=0;orthogonalLoop=1;jettySize=auto;html=1;" edge="1" parent="1" source="KgykDgwzjjI9ATA_reYL-10">
          <mxGeometry relative="1" as="geometry">
            <mxPoint x="150" y="530" as="targetPoint" />
          </mxGeometry>
        </mxCell>
        <mxCell id="KgykDgwzjjI9ATA_reYL-10" value="&lt;font style=&quot;font-size: 18px&quot;&gt;Output Layer&lt;/font&gt;" style="ellipse;whiteSpace=wrap;html=1;fontSize=17;fillColor=#99FF99;" vertex="1" parent="1">
          <mxGeometry x="370" y="630" width="160" height="80" as="geometry" />
        </mxCell>
        <mxCell id="KgykDgwzjjI9ATA_reYL-25" style="edgeStyle=orthogonalEdgeStyle;rounded=0;orthogonalLoop=1;jettySize=auto;html=1;fillColor=#3333FF;" edge="1" parent="1" source="KgykDgwzjjI9ATA_reYL-12">
          <mxGeometry relative="1" as="geometry">
            <mxPoint x="120" y="520" as="targetPoint" />
          </mxGeometry>
        </mxCell>
        <mxCell id="KgykDgwzjjI9ATA_reYL-12" value="&lt;font style=&quot;font-size: 18px&quot;&gt;View Output &lt;br&gt;&lt;/font&gt;" style="ellipse;whiteSpace=wrap;html=1;fontSize=17;fillColor=#99FF99;" vertex="1" parent="1">
          <mxGeometry x="370" y="740" width="160" height="80" as="geometry" />
        </mxCell>
        <mxCell id="KgykDgwzjjI9ATA_reYL-14" value="&lt;font style=&quot;font-size: 18px&quot;&gt;System&lt;/font&gt;" style="shape=umlActor;verticalLabelPosition=bottom;verticalAlign=top;html=1;outlineConnect=0;fillColor=#FF6666;" vertex="1" parent="1">
          <mxGeometry x="100" y="360" width="50" height="130" as="geometry" />
        </mxCell>
        <mxCell id="KgykDgwzjjI9ATA_reYL-17" style="edgeStyle=orthogonalEdgeStyle;rounded=0;orthogonalLoop=1;jettySize=auto;html=1;entryX=1;entryY=0.5;entryDx=0;entryDy=0;" edge="1" parent="1" source="KgykDgwzjjI9ATA_reYL-15" target="KgykDgwzjjI9ATA_reYL-2">
          <mxGeometry relative="1" as="geometry" />
        </mxCell>
        <mxCell id="KgykDgwzjjI9ATA_reYL-15" value="&lt;font style=&quot;font-size: 18px&quot;&gt;User&lt;/font&gt;" style="shape=umlActor;verticalLabelPosition=bottom;verticalAlign=top;html=1;outlineConnect=0;fillColor=#FF9999;" vertex="1" parent="1">
          <mxGeometry x="760" y="340" width="50" height="130" as="geometry" />
        </mxCell>
      </root>
    </mxGraphModel>
  </diagram>
</mxfile>
